<svg width="20" height="20" fill="none" xmlns="http://www.w3.org/2000/svg"><path d="M19.805 8.041H19V8h-9v4h5.652A5.998 5.998 0 014 10a6 6 0 016-6c1.53 0 2.921.577 3.98 1.52L16.81 2.69A9.954 9.954 0 0010 0C4.478 0 0 4.478 0 10c0 5.523 4.478 10 10 10 5.523 0 10-4.477 10-10 0-.67-.069-1.325-.195-1.959z" fill="#FFC107"/><path d="M1.153 5.346L4.44 7.755A5.997 5.997 0 0110 4c1.53 0 2.921.577 3.98 1.52l2.83-2.829A9.954 9.954 0 0010 0a9.994 9.994 0 00-8.847 5.346z" fill="#FF3D00"/><path d="M10 20c2.583 0 4.93-.988 6.705-2.596l-3.095-2.619A5.955 5.955 0 0110 16a5.997 5.997 0 01-5.641-3.973L1.098 14.54C2.753 17.777 6.114 20 10 20z" fill="#4CAF50"/><path d="M19.805 8.041H19V8h-9v4h5.652a6.02 6.02 0 01-2.044 2.786l.002-.002 3.095 2.62C16.485 17.602 20 15 20 10c0-.67-.069-1.325-.195-1.959z" fill="#1976D2"/></svg>